<svg version="1.0" id="Layer_1" xmlns="http://www.w3.org/2000/svg" x="0" y="0" viewBox="0 0 1001.7 158.3"
	style="enable-background:new 0 0 1001.7 158.3" xml:space="preserve">
	<style>
		.st0 {
			fill: #1d1d1b
		}
	</style>
	<path class="st0"
		d="M1001.6 77.2c0-28.3-8.5-46.1-20.7-57.1-14.1-13.4-32.5-17-45.7-17 0 0-5-.1-7.4-.1-16.3 0-77.5-.1-77.5-.1v152.4h85.9c24.3 0 65.4-14 65.4-76.9v-1.2zm-39.5 18.5c0 15.4-12.5 27.9-27.9 27.9l-46.4.1.4-89.1 46-.1c15.4 0 27.9 12.5 27.9 27.9v33.3zM547.3 2.9l-59.6 152.4h37.8l10.8-30.8h77.4l10.8 30.8h37.8L602.5 2.9h-55.2zm0 90.1 20.6-58.6h14.2L602.7 93h-55.4zM169.4 2.6v152.9H309V124H202.9V93.2h100.7V61.7H202.9V34.1H309V2.6zM130.6 20.1c-14.1-13.4-32.5-17-45.7-17L0 2.9v152.4h85.9c24.3 0 65.3-14 65.3-76.9v-1.1c.1-28.4-8.4-46.1-20.6-57.2zm-18.8 75.6c0 15.4-12.5 27.9-27.9 27.9l-50.6.1.4-89.1 50.2-.1c15.4 0 27.9 12.5 27.9 27.9v33.3zM779.9 2.9H672.4v152.4h37.8v-53.8h62.1c10.4 0 11.9 5.8 11.9 12.5v41.2h37.9v-53.5c0-15.6-8.7-19.6-18.5-20.6 12.1-5.5 21.4-16.1 21.9-33.3v-3c-.7-27.6-24-41.9-45.6-41.9zm4.9 53.6c0 7.5-6.1 13.6-13.6 13.6h-61V34.4s60.1.1 61 .1c7.5 0 13.6 6.1 13.6 13.6V48v8.5zM450.5 100.8v-.5c0 13.1-9 22.9-21.2 25.9-2.8.9-5.9 1.3-9 1.3h-21.5c-15.4 0-27.9-12.5-27.9-27.9V58.8c0-15.4 12.5-27.9 27.9-27.9h21.5c1.3 0 2.6.1 3.9.3 14.7.8 26.3 8.8 26.3 23.6v2.7h39.1C481.4 10.4 445.2.2 422.9.1H398c-25.2 0-67.9 14.6-67.9 80 0 64.6 42.6 77.9 68 78.2h25.3c22 0 57.3-11.1 65.9-57.4h-38.8v-.1z" />
</svg>